<?xml version="1.0" encoding="UTF-8"?>
<svg width="50px" height="33px" viewBox="0 0 50 33" version="1.1" xmlns="http://www.w3.org/2000/svg" xmlns:xlink="http://www.w3.org/1999/xlink">
    <!-- Generator: Sketch 52.6 (67491) - http://www.bohemiancoding.com/sketch -->
    <title>Artboard</title>
    <desc>Created with Sketch.</desc>
    <g id="Artboard" stroke="none" stroke-width="1" fill="none" fill-rule="evenodd">
        <g id="Group" fill="#E0E0E0">
            <polygon id="Fill-4" points="14.077 26.425 0.52 26.425 0.52 31.971 14.077 31.971"></polygon>
            <polygon id="Fill-5" points="0.5197 0.5433 14.0767 0.5433 0.5197 16.5653"></polygon>
            <polygon id="Fill-6" points="14.0766 9.7868 14.0766 17.7978 7.2976 17.7978"></polygon>
            <path d="M24.5524,0.5433 L31.3314,0.5433 C31.3314,0.5433 26.4014,1.7763 24.5524,6.0893 L24.5524,0.5433 Z" id="Fill-7"></path>
            <path d="M49.8179,4.857 L49.8179,0.543 L44.2719,0.543 C44.2719,0.543 47.8319,1.308 49.8179,4.857" id="Fill-8"></path>
            <path d="M49.8348,24.3194 L37.6478,24.3194 C37.6478,24.3194 47.4728,19.9204 49.8348,15.3154 L49.8348,24.3194 Z" id="Fill-9"></path>
            <path d="M24.5524,14.1002 L24.5524,17.7972 L28.8654,17.7972 L28.8654,20.6962 C31.2394,18.7562 37.3174,15.1962 38.7484,14.3062 C41.4644,12.6172 41.0304,11.1562 41.0304,10.4252 C41.0304,9.6952 40.3464,8.0522 38.9314,7.6642 C37.5164,7.2762 32.1524,6.6262 32.2894,14.1002 L24.5524,14.1002 Z" id="Fill-10"></path>
        </g>
    </g>
</svg>